<?xml version="1.0" encoding="utf-8"?>
<!-- Generator: Adobe Illustrator 20.1.0, SVG Export Plug-In . SVG Version: 6.00 Build 0)  -->
<svg version="1.1" id="Layer_1" xmlns="http://www.w3.org/2000/svg" xmlns:xlink="http://www.w3.org/1999/xlink" x="0px" y="0px"
	 viewBox="0 0 122 122" style="enable-background:new 0 0 122 122;" xml:space="preserve">
<style type="text/css">
	.st0{fill:#AFACA1;}
	.st1{fill:#AFACA1;stroke:#AFACA1;stroke-width:0.4886;stroke-miterlimit:10;}
</style>
<g>
	<g>
		<g id="_x39_01-repeat-toolbar_x40_2x.png">
			<g>
				<path class="st0" d="M97.8,81.1l-3.9-10.3c-0.2-0.5-0.5-0.9-1-1.1c-0.5-0.2-1-0.2-1.5,0l-10.3,3.9c-0.5,0.2-0.9,0.5-1.1,1
					c-0.4,1,0,2.1,1,2.6c0.5,0.2,1,0.2,1.5,0l5.9-2.2c-7.3,15.2-25.5,21.9-40.9,14.9c-11.6-5.2-18.4-16.7-18.4-28.7
					C29,44.3,42.4,30.1,59.4,29.6c12.8-0.4,23.9,7,29.1,17.8l0,0c0.3,0.7,1,1.2,1.8,1.2c1.1,0,1.9-0.9,1.9-2c0-0.4-0.2-0.7-0.4-1
					c-5.9-12.1-18.4-20.3-32.7-19.9c-19.1,0.6-34.2,16.8-34,35.9c0.1,13.3,7.7,26,20.7,31.9c17.5,7.9,37.9,0.3,46.1-16.9l2.3,6
					c0.2,0.5,0.5,0.9,1,1.1c1,0.4,2.1,0,2.6-1C98,82.1,98,81.6,97.8,81.1z"/>
			</g>
		</g>
		<g>
			<path class="st1" d="M41,60.4c2.2,0,4-0.8,4-3.2c0-2-1.5-3.5-3.5-3.5c-1.8,0-3.1,1.2-3.3,2.9h-2.5c0.5-3.3,2.6-5.1,5.9-5.1
				c3.2,0,5.8,2.1,5.8,5.4c0,2-0.9,3.6-2.6,4.6c2,0.9,2.9,2.8,2.9,5c0,3.8-2.8,6.1-6.5,6.1c-3.2,0-6-2.1-6.2-5.4h2.4
				c0.2,2,2,3.2,3.9,3.2c2.2,0,3.9-1.8,3.9-4c0-2.6-1.8-4.1-4.3-3.9v-2.1H41z"/>
			<path class="st1" d="M60,52.8l-5.4,7.3l0.1,0.1c0.6-0.3,1.3-0.5,2-0.5c3.3,0,5.8,3.1,5.8,6.3c0,3.7-3,6.6-6.7,6.6
				c-3.5,0-6.7-2.9-6.7-6.5c0-2,1-3.7,2.2-5.3l6.9-9.3L60,52.8z M60.1,66.2c0-2.5-2.1-4.3-4.3-4.3s-4.3,2-4.3,4.2
				c0,2.3,2,4.3,4.3,4.3S60.1,68.5,60.1,66.2z"/>
			<path class="st1" d="M64.2,62.1c0-4.2,1.8-10.5,7-10.5c5.2,0,7,6.4,7,10.5s-1.8,10.5-7,10.5C66,72.6,64.2,66.2,64.2,62.1z
				 M66.6,62.1c0,2.8,1,8.3,4.6,8.3s4.6-5.5,4.6-8.3c0-2.8-1-8.4-4.6-8.4C67.7,53.7,66.6,59.3,66.6,62.1z"/>
			<path class="st1" d="M89.3,59.9c-0.9,0.9-1.9,1.3-3.2,1.3c-1.3,0-2.4-0.4-3.2-1.3C82,59,81.6,58,81.6,56.7s0.4-2.3,1.3-3.2
				s1.9-1.3,3.2-1.3c1.3,0,2.4,0.4,3.2,1.3c0.9,0.9,1.3,1.9,1.3,3.2C90.6,58,90.1,59,89.3,59.9z M84.1,58.7c0.5,0.5,1.2,0.8,2,0.8
				s1.5-0.3,2-0.8s0.8-1.2,0.8-2s-0.3-1.5-0.8-2s-1.2-0.8-2-0.8s-1.5,0.3-2,0.8s-0.8,1.2-0.8,2C83.3,57.5,83.5,58.2,84.1,58.7z"/>
		</g>
	</g>
</g>
</svg>
