<?xml version="1.0" encoding="utf-8"?>
<!-- Generator: Adobe Illustrator 20.1.0, SVG Export Plug-In . SVG Version: 6.00 Build 0)  -->
<svg version="1.1" id="Layer_1" xmlns="http://www.w3.org/2000/svg" xmlns:xlink="http://www.w3.org/1999/xlink" x="0px" y="0px"
	 viewBox="0 0 50 50" style="enable-background:new 0 0 50 50;" xml:space="preserve">
<style type="text/css">
	.st0{fill:#010101;}
</style>
<g id="_x37_66-arrow-right_x40_2x.png">
	<g>
		<path class="st0" d="M15.2,25c0-0.2,0.1-0.3,0.2-0.4l0,0L32.3,7l0,0c0.1-0.1,0.3-0.2,0.5-0.2c0.4,0,0.6,0.3,0.6,0.6
			c0,0.2-0.1,0.3-0.2,0.4l0,0L16.8,25l16.4,17.1l0,0c0.1,0.1,0.2,0.3,0.2,0.4c0,0.4-0.3,0.6-0.6,0.6c-0.2,0-0.3-0.1-0.5-0.2l0,0
			L15.4,25.4l0,0C15.3,25.3,15.2,25.2,15.2,25z"/>
	</g>
</g>
</svg>
