<?xml version="1.0" encoding="utf-8"?>
<!-- Generator: Adobe Illustrator 20.1.0, SVG Export Plug-In . SVG Version: 6.00 Build 0)  -->
<svg version="1.1" id="Layer_1" xmlns="http://www.w3.org/2000/svg" xmlns:xlink="http://www.w3.org/1999/xlink" x="0px" y="0px"
	 viewBox="0 0 50 50" style="enable-background:new 0 0 50 50;" xml:space="preserve">
<style type="text/css">
	.st0{fill:#9d9d9d;}
</style>
<g id="_x37_66-arrow-right_x40_2x.png">
	<g>
		<path class="st0" d="M34.4,25c0-0.2-0.1-0.3-0.2-0.4l0,0L17.4,7l0,0c-0.1-0.1-0.3-0.2-0.5-0.2c-0.4,0-0.6,0.3-0.6,0.6
			c0,0.2,0.1,0.3,0.2,0.4l0,0L32.9,25L16.4,42.1l0,0c-0.1,0.1-0.2,0.3-0.2,0.4c0,0.4,0.3,0.6,0.6,0.6c0.2,0,0.3-0.1,0.5-0.2l0,0
			l16.9-17.5l0,0C34.3,25.3,34.4,25.2,34.4,25z"/>
	</g>
</g>
</svg>
