<?xml version="1.0" encoding="utf-8"?>
<!-- Generator: Adobe Illustrator 20.1.0, SVG Export Plug-In . SVG Version: 6.00 Build 0)  -->
<svg version="1.1" id="Layer_1" xmlns="http://www.w3.org/2000/svg" xmlns:xlink="http://www.w3.org/1999/xlink" x="0px" y="0px"
	 viewBox="0 0 50 50" style="enable-background:new 0 0 50 50;" xml:space="preserve">
<style type="text/css">
	.st0{fill:#010101;}
</style>
<g id="_x37_66-arrow-right_x40_2x.png">
	<g>
		<path class="st0" d="M25.7,14.1c-0.2,0-0.3,0.1-0.4,0.2l0,0L7.7,31.1l0,0c-0.1,0.1-0.2,0.3-0.2,0.5c0,0.4,0.3,0.6,0.6,0.6
			c0.2,0,0.3-0.1,0.4-0.2l0,0l17.1-16.4L42.7,32l0,0c0.1,0.1,0.3,0.2,0.4,0.2c0.4,0,0.6-0.3,0.6-0.6c0-0.2-0.1-0.3-0.2-0.5l0,0
			L26.1,14.3l0,0C26,14.1,25.8,14.1,25.7,14.1z"/>
	</g>
</g>
</svg>
