<?xml version="1.0" encoding="utf-8"?>
<!-- Generator: Adobe Illustrator 20.1.0, SVG Export Plug-In . SVG Version: 6.00 Build 0)  -->
<svg version="1.1" id="Layer_1" xmlns="http://www.w3.org/2000/svg" xmlns:xlink="http://www.w3.org/1999/xlink" x="0px" y="0px"
	 viewBox="0 0 50 50" style="enable-background:new 0 0 50 50;" xml:space="preserve">
<style type="text/css">
	.st0{opacity:0.7;fill:#FFFFFF;}
	.st1{fill:#7A7A7A;}
	.st2{fill:#7A7A7A;stroke:#7A7A7A;stroke-width:0.5;stroke-miterlimit:10;}
</style>
<path class="st0" d="M39,25.2c0,7.5-6.1,13.6-13.6,13.6s-13.6-6.1-13.6-13.6s6.1-13.6,13.6-13.6C33,11.6,39,17.6,39,25.2z"/>
<g>
	<g id="_x37_64-arrow-down_x40_2x.png">
		<g>
			<path class="st1" d="M34.5,28.1L34.5,28.1l-8.8-8.5l0,0c0-0.1-0.1-0.1-0.2-0.1s-0.1,0-0.2,0.1l0,0l-8.8,8.5l0,0
				c-0.1,0-0.1,0.1-0.1,0.2c0,0.2,0.1,0.3,0.3,0.3c0.1,0,0.1,0,0.2-0.1l0,0l8.6-8.3l8.6,8.3l0,0c0,0.1,0.1,0.1,0.2,0.1
				c0.2,0,0.3-0.1,0.3-0.3C34.6,28.2,34.6,28.2,34.5,28.1z"/>
		</g>
		<g>
			<path class="st2" d="M34.5,28.1L34.5,28.1l-8.8-8.5l0,0c0-0.1-0.1-0.1-0.2-0.1s-0.1,0-0.2,0.1l0,0l-8.8,8.5l0,0
				c-0.1,0-0.1,0.1-0.1,0.2c0,0.2,0.1,0.3,0.3,0.3c0.1,0,0.1,0,0.2-0.1l0,0l8.6-8.3l8.6,8.3l0,0c0,0.1,0.1,0.1,0.2,0.1
				c0.2,0,0.3-0.1,0.3-0.3C34.6,28.2,34.6,28.2,34.5,28.1z"/>
		</g>
	</g>
	<g id="_x37_28-clock_x40_2x.png">
		<g>
			<path class="st1" d="M39.4,25.1c0-7.8-6.3-14.1-14.1-14.1s-14.1,6.3-14.1,14.1s6.3,14.1,14.1,14.1S39.4,32.8,39.4,25.1z
				 M38.4,25.1c0,7.2-5.9,13.1-13.1,13.1s-13.1-5.9-13.1-13.1S18.1,12,25.3,12C32.6,12,38.4,17.8,38.4,25.1z"/>
		</g>
	</g>
</g>
</svg>
