<?xml version="1.0" encoding="utf-8"?>
<!-- Generator: Adobe Illustrator 20.1.0, SVG Export Plug-In . SVG Version: 6.00 Build 0)  -->
<svg version="1.1" id="Layer_1" xmlns="http://www.w3.org/2000/svg" xmlns:xlink="http://www.w3.org/1999/xlink" x="0px" y="0px"
	 viewBox="0 0 50 50" style="enable-background:new 0 0 50 50;" xml:space="preserve">
<style type="text/css">
	.st0{fill:#21C0E9;stroke:#21C0E9;stroke-width:0.1037;stroke-miterlimit:10;}
	.st1{fill:#21C0E9;stroke:#21C0E9;stroke-width:0.2825;stroke-linecap:round;stroke-linejoin:round;stroke-miterlimit:10;}
</style>
<g id="_x37_62-shopping-bag_x40_2x.png_2_">
	<g>
		<path class="st0" d="M36.9,18.7c0-0.6-0.5-1.1-1.1-1.1h-2.3H33h-0.6v-1.1c0-3.8-3.1-6.8-6.8-6.8s-6.8,3.1-6.8,6.8v1.1h-0.6h-0.6
			h-2.3c-0.6,0-1.1,0.5-1.1,1.1l-3.4,21.5c0,0.6,0.5,1.1,1.1,1.1H39c0.6,0,1.1-0.5,1.1-1.1L36.9,18.7z M19.9,16.4
			c0-3.2,2.6-5.6,5.6-5.6s5.6,2.6,5.6,5.6v1.1H19.9V16.4z M12,40.2l3.4-21.5h2.3h0.6h0.6v1.8c-0.7,0.2-1.1,0.9-1.1,1.6
			c0,0.9,0.8,1.7,1.7,1.7s1.7-0.8,1.7-1.7c0-0.7-0.5-1.4-1.1-1.6v-1.8h11.3v1.8c-0.7,0.2-1.1,0.9-1.1,1.6c0,0.9,0.8,1.7,1.7,1.7
			c0.9,0,1.7-0.8,1.7-1.7c0-0.7-0.5-1.4-1.1-1.6v-1.8H33h0.6h2.3l3.4,21.5H12z"/>
	</g>
	<g>
		<path class="st1" d="M36.9,18.7c0-0.6-0.5-1.1-1.1-1.1h-2.3H33h-0.6v-1.1c0-3.8-3.1-6.8-6.8-6.8s-6.8,3.1-6.8,6.8v1.1h-0.6h-0.6
			h-2.3c-0.6,0-1.1,0.5-1.1,1.1l-3.4,21.5c0,0.6,0.5,1.1,1.1,1.1H39c0.6,0,1.1-0.5,1.1-1.1L36.9,18.7z M19.9,16.4
			c0-3.2,2.6-5.6,5.6-5.6s5.6,2.6,5.6,5.6v1.1H19.9V16.4z M12,40.2l3.4-21.5h2.3h0.6h0.6v1.8c-0.7,0.2-1.1,0.9-1.1,1.6
			c0,0.9,0.8,1.7,1.7,1.7s1.7-0.8,1.7-1.7c0-0.7-0.5-1.4-1.1-1.6v-1.8h11.3v1.8c-0.7,0.2-1.1,0.9-1.1,1.6c0,0.9,0.8,1.7,1.7,1.7
			c0.9,0,1.7-0.8,1.7-1.7c0-0.7-0.5-1.4-1.1-1.6v-1.8H33h0.6h2.3l3.4,21.5H12z"/>
	</g>
</g>
</svg>
