<?xml version="1.0" encoding="utf-8"?>
<!-- Generator: Adobe Illustrator 20.1.0, SVG Export Plug-In . SVG Version: 6.00 Build 0)  -->
<svg version="1.1" id="Layer_1" xmlns="http://www.w3.org/2000/svg" xmlns:xlink="http://www.w3.org/1999/xlink" x="0px" y="0px"
	 viewBox="0 0 50 50" style="enable-background:new 0 0 50 50;" xml:space="preserve">
<style type="text/css">
	.st0{fill:#000;stroke:#000000;stroke-width:0.2856;stroke-linecap:round;stroke-linejoin:round;stroke-miterlimit:10;}
</style>
<g id="_x37_62-shopping-bag_x40_2x.png_1_">
	<g>
		<path d="M37,18.7c0-0.6-0.5-1.1-1.1-1.1h-2.3H33h-0.6v-1.1c0-3.8-3.1-6.9-6.9-6.9c-3.8,0-6.9,3.1-6.9,6.9v1.1h-0.6h-0.6h-2.3
			c-0.6,0-1.1,0.5-1.1,1.1l-3.4,21.7c0,0.6,0.5,1.1,1.1,1.1h27.4c0.6,0,1.1-0.5,1.1-1.1L37,18.7z M19.8,16.4c0-3.2,2.6-5.7,5.7-5.7
			s5.7,2.6,5.7,5.7v1.1H19.8V16.4z M11.8,40.4l3.4-21.7h2.3h0.6h0.6v1.8c-0.7,0.2-1.1,0.9-1.1,1.6c0,0.9,0.8,1.7,1.7,1.7
			s1.7-0.8,1.7-1.7c0-0.7-0.5-1.4-1.1-1.6v-1.8h11.4v1.8c-0.7,0.2-1.1,0.9-1.1,1.6c0,0.9,0.8,1.7,1.7,1.7s1.7-0.8,1.7-1.7
			c0-0.7-0.5-1.4-1.1-1.6v-1.8H33h0.6h2.3l3.4,21.7H11.8z"/>
	</g>
	<g>
		<path class="st0" d="M37,18.7c0-0.6-0.5-1.1-1.1-1.1h-2.3H33h-0.6v-1.1c0-3.8-3.1-6.9-6.9-6.9c-3.8,0-6.9,3.1-6.9,6.9v1.1h-0.6
			h-0.6h-2.3c-0.6,0-1.1,0.5-1.1,1.1l-3.4,21.7c0,0.6,0.5,1.1,1.1,1.1h27.4c0.6,0,1.1-0.5,1.1-1.1L37,18.7z M19.8,16.4
			c0-3.2,2.6-5.7,5.7-5.7s5.7,2.6,5.7,5.7v1.1H19.8V16.4z M11.8,40.4l3.4-21.7h2.3h0.6h0.6v1.8c-0.7,0.2-1.1,0.9-1.1,1.6
			c0,0.9,0.8,1.7,1.7,1.7s1.7-0.8,1.7-1.7c0-0.7-0.5-1.4-1.1-1.6v-1.8h11.4v1.8c-0.7,0.2-1.1,0.9-1.1,1.6c0,0.9,0.8,1.7,1.7,1.7
			s1.7-0.8,1.7-1.7c0-0.7-0.5-1.4-1.1-1.6v-1.8H33h0.6h2.3l3.4,21.7H11.8z"/>
	</g>
</g>
</svg>
