<?xml version="1.0" encoding="utf-8"?>
<!-- Generator: Adobe Illustrator 20.1.0, SVG Export Plug-In . SVG Version: 6.00 Build 0)  -->
<svg version="1.1" id="Layer_1" xmlns="http://www.w3.org/2000/svg" xmlns:xlink="http://www.w3.org/1999/xlink" x="0px" y="0px"
	 viewBox="0 0 50 50" style="enable-background:new 0 0 50 50;" xml:space="preserve">
<style type="text/css">
	.st0{fill:none;stroke:#000000;stroke-width:0.2082;stroke-linecap:round;stroke-linejoin:round;stroke-miterlimit:10;}
</style>
<g id="_x37_03-download_x40_2x.png_4_">
	<g>
		<path d="M31.6,24.7c-0.2,0-0.4,0.1-0.5,0.2l-4.7,4.7V5.3c0-0.4-0.3-0.7-0.7-0.7c-0.4,0-0.7,0.3-0.7,0.7v24.3l-4.7-4.7
			c-0.1-0.1-0.3-0.2-0.5-0.2c-0.4,0-0.7,0.3-0.7,0.7c0,0.2,0.1,0.4,0.2,0.5l6,6c0.1,0.1,0.3,0.2,0.5,0.2s0.4-0.1,0.5-0.2l6-6
			c0.1-0.1,0.2-0.3,0.2-0.5C32.3,25,32,24.7,31.6,24.7z"/>
	</g>
</g>
<g id="_x37_48-heart_x40_2x.png">
	<g>
		<path d="M34,9.7c-1.5,0-2.9,0.3-4.2,0.8l0,1.5c1.3-0.6,2.7-0.9,4.2-0.9c5.4,0,9.7,4.3,9.7,9.7c0,12.5-16.7,19.9-18,21.9
			c-1.4-2.1-18-9.5-18-21.9c0-5.4,4.3-9.7,9.7-9.7c1.5,0,2.9,0.3,4.2,0.9l0-1.5c-1.3-0.5-2.7-0.8-4.2-0.8c-6.1,0-11.1,5-11.1,11.1
			c0,12.5,15.3,19.4,19.4,23.6c4.2-4.2,19.4-11.1,19.4-23.6C45.1,14.6,40.1,9.7,34,9.7z"/>
	</g>
	<g>
		<path class="st0" d="M34,9.7c-1.5,0-2.9,0.3-4.2,0.8l0,1.5c1.3-0.6,2.7-0.9,4.2-0.9c5.4,0,9.7,4.3,9.7,9.7
			c0,12.5-16.7,19.9-18,21.9c-1.4-2.1-18-9.5-18-21.9c0-5.4,4.3-9.7,9.7-9.7c1.5,0,2.9,0.3,4.2,0.9l0-1.5c-1.3-0.5-2.7-0.8-4.2-0.8
			c-6.1,0-11.1,5-11.1,11.1c0,12.5,15.3,19.4,19.4,23.6c4.2-4.2,19.4-11.1,19.4-23.6C45.1,14.6,40.1,9.7,34,9.7z"/>
	</g>
</g>
</svg>
