<?xml version="1.0" encoding="utf-8"?>
<!-- Generator: Adobe Illustrator 20.1.0, SVG Export Plug-In . SVG Version: 6.00 Build 0)  -->
<svg version="1.1" id="Layer_1" xmlns="http://www.w3.org/2000/svg" xmlns:xlink="http://www.w3.org/1999/xlink" x="0px" y="0px"
	 viewBox="0 0 50 50" style="enable-background:new 0 0 50 50;" xml:space="preserve">
<style type="text/css">
	.st0{fill:#fff;stroke:#000000;stroke-width:0.3162;stroke-linecap:round;stroke-linejoin:round;stroke-miterlimit:10;}
</style>
<g id="_x38_01-bird-house_x40_2x.png_2_">
	<g>
		<path d="M43.4,23.9L43.4,23.9L26.4,6.2l0,0C26.2,6.1,26.1,6,25.9,6c-0.2,0-0.3,0.1-0.5,0.2l0,0L8.4,23.9l0,0
			c-0.1,0.1-0.2,0.3-0.2,0.4c0,0.3,0.3,0.6,0.6,0.6c0.2,0,0.3-0.1,0.5-0.2l0,0L12,22v18.2c0,0.7,0.6,1.3,1.3,1.3h25.3
			c0.7,0,1.3-0.6,1.3-1.3V22l2.7,2.8l0,0c0.1,0.1,0.3,0.2,0.5,0.2c0.3,0,0.6-0.3,0.6-0.6C43.6,24.2,43.5,24,43.4,23.9z M38.6,40.2
			H13.3V20.7L25.9,7.5l12.6,13.1V40.2z"/>
	</g>
	<g>
		<path class="st0" d="M43.4,23.9L43.4,23.9L26.4,6.2l0,0C26.2,6.1,26.1,6,25.9,6c-0.2,0-0.3,0.1-0.5,0.2l0,0L8.4,23.9l0,0
			c-0.1,0.1-0.2,0.3-0.2,0.4c0,0.3,0.3,0.6,0.6,0.6c0.2,0,0.3-0.1,0.5-0.2l0,0L12,22v18.2c0,0.7,0.6,1.3,1.3,1.3h25.3
			c0.7,0,1.3-0.6,1.3-1.3V22l2.7,2.8l0,0c0.1,0.1,0.3,0.2,0.5,0.2c0.3,0,0.6-0.3,0.6-0.6C43.6,24.2,43.5,24,43.4,23.9z M38.6,40.2
			H13.3V20.7L25.9,7.5l12.6,13.1V40.2z"/>
	</g>
</g>
</svg>
