<?xml version="1.0" encoding="utf-8"?>
<!-- Generator: Adobe Illustrator 20.1.0, SVG Export Plug-In . SVG Version: 6.00 Build 0)  -->
<svg version="1.1" id="Layer_1" xmlns="http://www.w3.org/2000/svg" xmlns:xlink="http://www.w3.org/1999/xlink" x="0px" y="0px"
	 viewBox="0 0 50 50" style="enable-background:new 0 0 50 50;" xml:space="preserve">
<style type="text/css">
	.st0{fill:#fff;stroke:#fff;stroke-width:0.2901;stroke-linecap:round;stroke-linejoin:round;stroke-miterlimit:10;}
	.st1{fill:#fff;stroke:#fff;stroke-width:0.2901;stroke-linecap:round;stroke-linejoin:round;stroke-miterlimit:10;}
</style>
<g>
	<g id="_x37_84-target_x40_2x.png">
		<g>
			<path d="M36.2,14.4c-1.7-1.8-3.7-3-5.9-3.7l-0.2,1.1c1.9,0.7,3.8,1.8,5.3,3.4c5.4,5.5,5.2,14.3-0.3,19.7
				c-5.5,5.4-14.3,5.2-19.7-0.3c-5.4-5.5-5.2-14.3,0.3-19.7c1.6-1.5,3.4-2.6,5.4-3.2l-0.2-1.2c-2.2,0.7-4.2,1.9-6,3.6
				c-6,5.8-6.1,15.4-0.3,21.3c5.8,6,15.4,6.1,21.3,0.3S42,20.3,36.2,14.4z"/>
		</g>
		<g>
			<path class="st0" d="M36.2,14.4c-1.7-1.8-3.7-3-5.9-3.7l-0.2,1.1c1.9,0.7,3.8,1.8,5.3,3.4c5.4,5.5,5.2,14.3-0.3,19.7
				c-5.5,5.4-14.3,5.2-19.7-0.3c-5.4-5.5-5.2-14.3,0.3-19.7c1.6-1.5,3.4-2.6,5.4-3.2l-0.2-1.2c-2.2,0.7-4.2,1.9-6,3.6
				c-6,5.8-6.1,15.4-0.3,21.3c5.8,6,15.4,6.1,21.3,0.3S42,20.3,36.2,14.4z"/>
		</g>
	</g>
	<rect x="24.9" y="8.6" class="st1" width="1.2" height="21.4"/>
</g>
</svg>
