<?xml version="1.0" encoding="utf-8"?>
<!-- Generator: Adobe Illustrator 20.1.0, SVG Export Plug-In . SVG Version: 6.00 Build 0)  -->
<svg version="1.1" id="Layer_1" xmlns="http://www.w3.org/2000/svg" xmlns:xlink="http://www.w3.org/1999/xlink" x="0px" y="0px"
	 viewBox="0 0 50 50" style="enable-background:new 0 0 50 50;" xml:space="preserve">
<g id="_x38_95-user-group_x40_2x.png">
	<g>
		<path d="M38.4,26.9c-1.6-1-2.2-0.9-2.2-2.3c0-3.2,1.3-2.3,1.3-5.5c0-5-3.3-5-3.8-5s-4.1,0-4.1,5c0,3.2,1.3,2.3,1.3,5.5
			c0,1.1-0.1,1.2-0.9,1.8c0.6,0.2,0.7,0.3,1.3,0.5c0.5-0.4,0.9-1,0.9-2.3c0-1.8-0.4-2-0.8-2.8c-0.3-0.5-0.5-1.5-0.5-2.7
			c0-1.7,0.9-3.7,2.8-3.7c2,0,2.4,2,2.4,3.7c0,1.2-0.3,2.2-0.6,2.7c-0.5,0.8-0.8,1-0.8,2.8c0,1.8,0.9,2.3,1.8,2.8
			c0.3,0.2,0.6,0.3,1,0.6c0.3,0.2,0.6,0.4,0.9,0.6c1.3,0.8,1.3,1.2,1.5,2.5h-3.1c0.2,0.4,0.5,0.8,0.6,1.3h3.8
			C41.4,28.8,40.6,28.4,38.4,26.9z M31.5,28.5c-3.9-2-5.2-1.3-5.2-3.3c0-4.6,2-3.3,2-7.9c0-7.2-4.6-7.2-5.2-7.2s-5.2,0-5.2,7.2
			c0,4.6,2,3.3,2,7.9c0,2-1.3,1.3-5.2,3.3c-3.4,1.7-5.2,2.6-5.2,7.9h27.5C36.8,31.1,35,30.2,31.5,28.5z M10.6,35.1
			c0.2-3.3,1.5-3.9,4.5-5.4c1.3-0.7,2.3-1,3.1-1.3c1.5-0.5,2.8-1,2.8-3.2c0-2.7-0.6-3.7-1.2-4.6c-0.4-0.7-0.8-1.3-0.8-3.3
			c0-5.1,2.5-5.9,3.9-5.9c1.5,0,3.9,0.8,3.9,5.9c0,1.9-0.4,2.5-0.8,3.3c-0.5,0.9-1.2,2-1.2,4.6c0,2.2,1.4,2.7,2.8,3.2
			c0.8,0.3,1.8,0.6,3.1,1.3c2.9,1.5,4.2,2.1,4.5,5.4H10.6z"/>
	</g>
</g>
</svg>
