<?xml version="1.0" encoding="utf-8"?>
<!-- Generator: Adobe Illustrator 20.1.0, SVG Export Plug-In . SVG Version: 6.00 Build 0)  -->
<svg version="1.1" id="Layer_1" xmlns="http://www.w3.org/2000/svg" xmlns:xlink="http://www.w3.org/1999/xlink" x="0px" y="0px"
	 viewBox="0 0 50 50" style="enable-background:new 0 0 50 50;" xml:space="preserve">
	 <style type="text/css">
	.st0{fill:#fff;stroke:#000000;stroke-width:0.2742;stroke-linecap:round;stroke-linejoin:round;stroke-miterlimit:10;}
</style>
<g id="_x38_32-stack-1_x40_2x.png_2_">
	<g>
		<path class="st0" d="M7.9,20.4L7.9,20.4l17.3,10.3l0,0c0.1,0.1,0.2,0.1,0.3,0.1s0.2,0,0.3-0.1l0,0l17.3-10.2l0,0c0.2-0.1,0.3-0.3,0.3-0.5
			c0-0.2-0.1-0.4-0.3-0.5l0,0L25.8,9.1l0,0C25.7,9.1,25.6,9,25.5,9s-0.2,0-0.3,0.1l0,0L7.9,19.4l0,0c-0.2,0.1-0.3,0.3-0.3,0.5
			C7.5,20.1,7.7,20.3,7.9,20.4z M25.5,10.4l16,9.5l-16,9.5l-16-9.5L25.5,10.4z M42.8,23.7c-0.1,0-0.2,0-0.3,0.1l0,0l-17,10.1
			l-17-10.1l0,0c-0.1-0.1-0.2-0.1-0.3-0.1c-0.4,0-0.6,0.3-0.6,0.6c0,0.2,0.1,0.4,0.3,0.5l0,0l17.3,10.2l0,0c0.1,0.1,0.2,0.1,0.3,0.1
			s0.2,0,0.3-0.1l0,0l17.3-10.2l0,0c0.2-0.1,0.3-0.3,0.3-0.5C43.4,24,43.1,23.7,42.8,23.7z M42.8,28.2c-0.1,0-0.2,0-0.3,0.1l0,0
			l-17,10.1l-17-10.1l0,0c-0.1-0.1-0.2-0.1-0.3-0.1c-0.4,0-0.6,0.3-0.6,0.6c0,0.2,0.1,0.4,0.3,0.5l0,0l17.3,10.2l0,0
			c0.1,0.1,0.2,0.1,0.3,0.1s0.2,0,0.3-0.1l0,0l17.3-10.2l0,0c0.2-0.1,0.3-0.3,0.3-0.5C43.4,28.5,43.1,28.2,42.8,28.2z"/>
	</g>
</g>
</svg>
