<?xml version="1.0" encoding="utf-8"?>
<!-- Generator: Adobe Illustrator 20.1.0, SVG Export Plug-In . SVG Version: 6.00 Build 0)  -->
<svg version="1.1" id="Layer_1" xmlns="http://www.w3.org/2000/svg" xmlns:xlink="http://www.w3.org/1999/xlink" x="0px" y="0px"
	 viewBox="0 0 50 50" style="enable-background:new 0 0 50 50;" xml:space="preserve">
<style type="text/css">
	.st0{fill:none;stroke:#000000;stroke-width:0.2742;stroke-linecap:round;stroke-linejoin:round;stroke-miterlimit:10;}
</style>
<g id="_x37_59-refresh-2_x40_2x.png_3_">
	<g>
		<path d="M25.5,10.6c5.5,0,10.3,3.1,12.6,7.7h-6.6c-0.3,0-0.5,0.2-0.5,0.5c0,0.3,0.2,0.5,0.5,0.5h7.7c0.3,0,0.5-0.2,0.5-0.5v-7.7
			c0-0.3-0.2-0.5-0.5-0.5c-0.3,0-0.5,0.2-0.5,0.5V17c-2.7-4.5-7.6-7.5-13.2-7.5c-8.5,0-15.4,6.9-15.4,15.4c0,0.3,0.2,0.5,0.5,0.5
			s0.5-0.2,0.5-0.5C11.2,17,17.6,10.6,25.5,10.6z M40.3,24.3c-0.3,0-0.5,0.2-0.5,0.5c0,7.9-6.4,14.3-14.3,14.3
			c-5.5,0-10.3-3.1-12.6-7.7h6.6c0.3,0,0.5-0.2,0.5-0.5s-0.2-0.5-0.5-0.5h-7.7c-0.3,0-0.5,0.2-0.5,0.5v7.7c0,0.3,0.2,0.5,0.5,0.5
			s0.5-0.2,0.5-0.5v-5.8c2.7,4.5,7.6,7.5,13.2,7.5c8.5,0,15.4-6.9,15.4-15.4c0,0,0,0,0,0C40.8,24.6,40.6,24.3,40.3,24.3z"/>
	</g>
	<g>
		<path class="st0" d="M25.5,10.6c5.5,0,10.3,3.1,12.6,7.7h-6.6c-0.3,0-0.5,0.2-0.5,0.5c0,0.3,0.2,0.5,0.5,0.5h7.7
			c0.3,0,0.5-0.2,0.5-0.5v-7.7c0-0.3-0.2-0.5-0.5-0.5c-0.3,0-0.5,0.2-0.5,0.5V17c-2.7-4.5-7.6-7.5-13.2-7.5
			c-8.5,0-15.4,6.9-15.4,15.4c0,0.3,0.2,0.5,0.5,0.5s0.5-0.2,0.5-0.5C11.2,17,17.6,10.6,25.5,10.6z M40.3,24.3
			c-0.3,0-0.5,0.2-0.5,0.5c0,7.9-6.4,14.3-14.3,14.3c-5.5,0-10.3-3.1-12.6-7.7h6.6c0.3,0,0.5-0.2,0.5-0.5s-0.2-0.5-0.5-0.5h-7.7
			c-0.3,0-0.5,0.2-0.5,0.5v7.7c0,0.3,0.2,0.5,0.5,0.5s0.5-0.2,0.5-0.5v-5.8c2.7,4.5,7.6,7.5,13.2,7.5c8.5,0,15.4-6.9,15.4-15.4
			c0,0,0,0,0,0C40.8,24.6,40.6,24.3,40.3,24.3z"/>
	</g>
</g>
</svg>
