<?xml version="1.0" encoding="utf-8"?>
<!-- Generator: Adobe Illustrator 20.1.0, SVG Export Plug-In . SVG Version: 6.00 Build 0)  -->
<svg version="1.1" id="Layer_1" xmlns="http://www.w3.org/2000/svg" xmlns:xlink="http://www.w3.org/1999/xlink" x="0px" y="0px"
	 viewBox="0 0 50 50" style="enable-background:new 0 0 50 50;" xml:space="preserve">
<style type="text/css">
	.st0{fill:none;stroke:#000000;stroke-width:0.4916;stroke-linecap:round;stroke-linejoin:round;stroke-miterlimit:10;}
</style>
<g>
	<g id="_x37_64-arrow-down_x40_2x.png">
		<g>
			<path d="M34.6,22.1c0-0.2-0.1-0.3-0.3-0.3c-0.1,0-0.2,0-0.2,0.1l0,0l-8.6,8.3l-8.6-8.3l0,0c-0.1-0.1-0.1-0.1-0.2-0.1
				c-0.2,0-0.3,0.1-0.3,0.3c0,0.1,0,0.2,0.1,0.2l0,0l8.8,8.5l0,0c0.1,0.1,0.1,0.1,0.2,0.1s0.2,0,0.2-0.1l0,0l8.8-8.5l0,0
				C34.6,22.2,34.6,22.2,34.6,22.1z"/>
		</g>
		<g>
			<path class="st0" d="M34.6,22.1c0-0.2-0.1-0.3-0.3-0.3c-0.1,0-0.2,0-0.2,0.1l0,0l-8.6,8.3l-8.6-8.3l0,0c-0.1-0.1-0.1-0.1-0.2-0.1
				c-0.2,0-0.3,0.1-0.3,0.3c0,0.1,0,0.2,0.1,0.2l0,0l8.8,8.5l0,0c0.1,0.1,0.1,0.1,0.2,0.1s0.2,0,0.2-0.1l0,0l8.8-8.5l0,0
				C34.6,22.2,34.6,22.2,34.6,22.1z"/>
		</g>
	</g>
	<g id="_x37_28-clock_x40_2x.png">
		<g>
			<path d="M25.3,11.2c-7.8,0-14.1,6.3-14.1,14.1c0,7.8,6.3,14.1,14.1,14.1s14.1-6.3,14.1-14.1C39.4,17.6,33.1,11.2,25.3,11.2z
				 M25.3,38.4c-7.2,0-13.1-5.9-13.1-13.1c0-7.2,5.9-13.1,13.1-13.1s13.1,5.9,13.1,13.1C38.4,32.6,32.6,38.4,25.3,38.4z"/>
		</g>
	</g>
</g>
</svg>
