<?xml version="1.0" encoding="utf-8"?>
<!-- Generator: Adobe Illustrator 20.1.0, SVG Export Plug-In . SVG Version: 6.00 Build 0)  -->
<svg version="1.1" id="Layer_1" xmlns="http://www.w3.org/2000/svg" xmlns:xlink="http://www.w3.org/1999/xlink" x="0px" y="0px"
	 viewBox="0 0 50 50" style="enable-background:new 0 0 50 50;" xml:space="preserve">
<style type="text/css">
	.st0{fill:#fff;stroke:#000000;stroke-width:0.2854;stroke-linecap:round;stroke-linejoin:round;stroke-miterlimit:10;}
</style>
<g id="_x37_40-gear_x40_2x.png_3_">
	<g>
		<path d="M41.1,23.5L41.1,23.5L37,22.3c-0.2-0.8-0.6-1.5-0.9-2.2l2.1-3.7l0,0c0.1-0.2,0.1-0.5-0.1-0.7l-2.4-2.4
			c-0.2-0.2-0.5-0.2-0.7-0.1l0,0l-3.7,2.1c-0.7-0.4-1.5-0.7-2.3-0.9l-1.2-4.1l0,0c-0.1-0.2-0.3-0.4-0.5-0.4h-3.4
			c-0.3,0-0.5,0.2-0.5,0.4l0,0l-1.2,4.1c-0.7,0.2-1.5,0.5-2.1,0.9l-3.8-2.1l0,0c-0.2-0.1-0.5-0.1-0.7,0.1L13,15.7
			c-0.2,0.2-0.2,0.5-0.1,0.7l0,0l2.1,3.8c-0.3,0.6-0.6,1.3-0.8,2L10,23.4l0,0c-0.2,0.1-0.4,0.3-0.4,0.6v3.5c0,0.3,0.2,0.5,0.4,0.6
			l0,0l4.1,1.2c0.2,0.7,0.5,1.4,0.8,2l-2.1,3.8l0,0c-0.1,0.2-0.1,0.5,0.1,0.7l2.5,2.5c0.2,0.2,0.5,0.2,0.7,0.1l0,0l3.8-2.1
			c0.6,0.3,1.3,0.6,2,0.9l1.2,4.1l0,0c0.1,0.2,0.3,0.4,0.6,0.4h3.5c0.3,0,0.5-0.2,0.6-0.4l0,0l1.2-4.1c0.7-0.2,1.5-0.5,2.1-0.9
			l3.7,2.1l0,0c0.2,0.1,0.5,0.1,0.7-0.1l2.4-2.4c0.2-0.2,0.2-0.5,0.1-0.7l0,0l-2.1-3.7c0.4-0.7,0.7-1.5,0.9-2.3l4.1-1.2l0,0
			c0.2-0.1,0.4-0.3,0.4-0.5v-3.4C41.5,23.8,41.3,23.6,41.1,23.5z M40.4,27.1l-4.3,1.2c-0.3,1.1-0.7,2.2-1.3,3.2l2.2,3.9l-1.8,1.8
			L31.2,35c-0.9,0.6-2,1-3.1,1.3l-1.3,4.3h-2.6l-1.3-4.3c-1.1-0.3-2.1-0.7-3-1.2l-4,2.2l-1.9-1.9l2.2-4c-0.6-0.9-1-1.9-1.2-3
			l-4.3-1.3v-2.6l4.3-1.3c0.3-1.1,0.7-2.1,1.2-3l-2.2-4l1.9-1.9l4,2.2c0.9-0.6,2-1,3.1-1.3l1.2-4.3h2.6l1.2,4.3
			c1.1,0.3,2.2,0.7,3.2,1.3l3.9-2.2l1.8,1.8l-2.2,3.9c0.6,1,1,2,1.3,3.2l4.3,1.2V27.1z M25.5,20.1c-3.2,0-5.7,2.6-5.7,5.7
			c0,3.2,2.6,5.7,5.7,5.7c3.2,0,5.7-2.6,5.7-5.7C31.2,22.6,28.7,20.1,25.5,20.1z M25.5,30.3c-2.5,0-4.6-2-4.6-4.6
			c0-2.5,2-4.6,4.6-4.6c2.5,0,4.6,2,4.6,4.6C30.1,28.3,28,30.3,25.5,30.3z"/>
	</g>
	<g>
		<path class="st0" d="M41.1,23.5L41.1,23.5L37,22.3c-0.2-0.8-0.6-1.5-0.9-2.2l2.1-3.7l0,0c0.1-0.2,0.1-0.5-0.1-0.7l-2.4-2.4
			c-0.2-0.2-0.5-0.2-0.7-0.1l0,0l-3.7,2.1c-0.7-0.4-1.5-0.7-2.3-0.9l-1.2-4.1l0,0c-0.1-0.2-0.3-0.4-0.5-0.4h-3.4
			c-0.3,0-0.5,0.2-0.5,0.4l0,0l-1.2,4.1c-0.7,0.2-1.5,0.5-2.1,0.9l-3.8-2.1l0,0c-0.2-0.1-0.5-0.1-0.7,0.1L13,15.7
			c-0.2,0.2-0.2,0.5-0.1,0.7l0,0l2.1,3.8c-0.3,0.6-0.6,1.3-0.8,2L10,23.4l0,0c-0.2,0.1-0.4,0.3-0.4,0.6v3.5c0,0.3,0.2,0.5,0.4,0.6
			l0,0l4.1,1.2c0.2,0.7,0.5,1.4,0.8,2l-2.1,3.8l0,0c-0.1,0.2-0.1,0.5,0.1,0.7l2.5,2.5c0.2,0.2,0.5,0.2,0.7,0.1l0,0l3.8-2.1
			c0.6,0.3,1.3,0.6,2,0.9l1.2,4.1l0,0c0.1,0.2,0.3,0.4,0.6,0.4h3.5c0.3,0,0.5-0.2,0.6-0.4l0,0l1.2-4.1c0.7-0.2,1.5-0.5,2.1-0.9
			l3.7,2.1l0,0c0.2,0.1,0.5,0.1,0.7-0.1l2.4-2.4c0.2-0.2,0.2-0.5,0.1-0.7l0,0l-2.1-3.7c0.4-0.7,0.7-1.5,0.9-2.3l4.1-1.2l0,0
			c0.2-0.1,0.4-0.3,0.4-0.5v-3.4C41.5,23.8,41.3,23.6,41.1,23.5z M40.4,27.1l-4.3,1.2c-0.3,1.1-0.7,2.2-1.3,3.2l2.2,3.9l-1.8,1.8
			L31.2,35c-0.9,0.6-2,1-3.1,1.3l-1.3,4.3h-2.6l-1.3-4.3c-1.1-0.3-2.1-0.7-3-1.2l-4,2.2l-1.9-1.9l2.2-4c-0.6-0.9-1-1.9-1.2-3
			l-4.3-1.3v-2.6l4.3-1.3c0.3-1.1,0.7-2.1,1.2-3l-2.2-4l1.9-1.9l4,2.2c0.9-0.6,2-1,3.1-1.3l1.2-4.3h2.6l1.2,4.3
			c1.1,0.3,2.2,0.7,3.2,1.3l3.9-2.2l1.8,1.8l-2.2,3.9c0.6,1,1,2,1.3,3.2l4.3,1.2V27.1z M25.5,20.1c-3.2,0-5.7,2.6-5.7,5.7
			c0,3.2,2.6,5.7,5.7,5.7c3.2,0,5.7-2.6,5.7-5.7C31.2,22.6,28.7,20.1,25.5,20.1z M25.5,30.3c-2.5,0-4.6-2-4.6-4.6
			c0-2.5,2-4.6,4.6-4.6c2.5,0,4.6,2,4.6,4.6C30.1,28.3,28,30.3,25.5,30.3z"/>
	</g>
</g>
</svg>
